<?xml version="1.0" encoding="UTF-8"?>
<svg id="Layer_1" data-name="Layer 1" xmlns="http://www.w3.org/2000/svg" xmlns:xlink="http://www.w3.org/1999/xlink" viewBox="0 0 400 225">
  <defs>
    <style>
      .cls-1 {
        fill: #fff;
      }

      .cls-2 {
        fill: #c5c5ce;
      }

      .cls-3 {
        fill: url(#radial-gradient);
      }

      .cls-4 {
        fill: #0c2049;
      }

      .cls-5 {
        fill: url(#radial-gradient-2);
      }
    </style>
    <radialGradient id="radial-gradient" cx="201.7" cy="70.04" fx="201.7" fy="70.04" r="39.85" gradientUnits="userSpaceOnUse">
      <stop offset="0" stop-color="#637cb0"/>
      <stop offset="1" stop-color="#0c2049"/>
    </radialGradient>
    <radialGradient id="radial-gradient-2" cx="201.7" cy="70.04" fx="201.7" fy="70.04" r="39.85" xlink:href="#radial-gradient"/>
  </defs>
  <g>
    <rect x="139.77" y="200.67" width="41.31" height=".46"/>
    <rect x="218.92" y="200.67" width="41.31" height=".46"/>
  </g>
  <g>
    <path class="cls-2" d="m200.79,31.07h-1.21v6.09h0s.22-.04,1.2-.02h0s0,0,0,0h0v-6.07Z"/>
    <path class="cls-4" d="m182.99,127.9c.2.16.42.31.64.45-.22-.15-.44-.29-.64-.45Z"/>
    <path class="cls-4" d="m183.9,128.54c.22.13.47.24.71.36-.24-.11-.49-.22-.71-.36Z"/>
    <path class="cls-4" d="m185.42,127.05c-.43-.16-1.25-.5-2.32-1.08,1.06.58,1.89.92,2.32,1.08Z"/>
    <path class="cls-4" d="m182.86,128.5c-.11-.03-.22-.07-.33-.1.11.03.23.07.33.1Z"/>
    <polygon class="cls-4" points="186.86 104.41 186.86 104.41 186.86 104.42 186.86 104.41"/>
    <polygon class="cls-4" points="180.13 124.05 180.13 124.05 180.13 124.05 180.13 124.05"/>
    <path class="cls-4" d="m177.47,126.26s-.02-.06-.02-.06c0,0,0,0-.01,0,0,0,.02.04.04.07Z"/>
    <path class="cls-4" d="m185.27,105.48s0,0,0,0l1.58-1.06c-.65.26-1.13.68-1.58,1.06Z"/>
    <path class="cls-4" d="m180.88,116.42l-5.11-4.41-4.55-1.68v-.39l-10.36,7.68,10.36-9.79v-3.96l3.89.27,8.95,2.15h.02s0,0-.01,0c-3.32-2.38-6.6-4.71-9.9-7.1-6.55,5.35-12.98,10.61-19.43,15.86,1.2,6.04,4.32,10.8,9.1,14.47,3.7,2.82,4.1,2.87,8.62,1.92.73-.15,1.58-.06,2.33-.75-3.42-1.23-6-3.31-8.25-5.85h.06c.07-.01.16-.03.23-.03.61,0,1.04.5,1.54.76,2.46,1.29,4.88,2.63,7.5,3.33l-1.48-4.46,4.58-2.32,5.71,2.36,1.08,2.67h0c.12-3.82.51-7.53.56-11.27h0s-8-2.95-8-2.95l2.57,3.47Zm-14.37,8.4s-.03-.04-.06-.06c.03.01.04.03.06.03v.03Z"/>
    <path class="cls-4" d="m182.08,128.26c-.11-.03-.22-.07-.33-.11.11.04.22.07.33.11Z"/>
    <path class="cls-4" d="m181.21,127.97s-.07-.03-.11-.04c.04.01.07.03.11.04Z"/>
    <path class="cls-4" d="m182.9,127.82c-1.6-1.35-2.47-3.1-2.71-3.63,0,0,0-.02-.01-.02,0,.01,0,.02.02.03.23.53,1.1,2.27,2.7,3.62Z"/>
    <path class="cls-2" d="m188.96,36.03c-.18.01-.38.01-.56.03-19.71.92-38.24,7.61-41.55,8.85-.1.04-.19.07-.26.1-.07.03-.15.06-.2.07-.04.01-.06.03-.06.03-.59.2-1.26.28-1.74,1.02v1.57c0,19.44-.03,38.86.03,58.29.01,3.19.09,6.39.57,9.55,1.07,7.11,3.91,13.31,9.03,18.43.44.44.83.97,1.58,1.23.45-.07,1.02-.13,1.59-.23.23-.04.47-.2.7-.31-.25-.69-.88-.97-1.33-1.4-3.53-3.37-6.19-7.27-7.78-11.91-1.42-4.23-1.77-8.62-1.77-13.04,0-17.57.01-35.14.03-52.73,0-.67-.12-1.39.16-2.11l10.56-3.83.07-.03,16.94-6.16,5.62-2.05.13-.04,3.8-1.38.72-.26c-.1.01-.31.06-.66.12-.01.01-.03.01-.04.01-3.45.76-17.92,3.95-28.03,7.18h-.01c-2.68.83-6.97,2.48-7.06,2.51-.63.25-.91.34-1.94.69-.2-.7-.27-1.2-.42-1.74,2.36-4.91,37.85-11.57,41.89-12.48Z"/>
    <path class="cls-4" d="m242.31,125.71c-5.99.47-10.57,2.41-15.94,4.99-5.18,2.48-10.41,4.86-15.76,6.96-6.54,2.57-13.18,4.78-20.14,6-3.39.59-6.81.98-10.37,1.5.69.45,1.33.49,1.93.63,3.37.79,6.78,1.17,10.24,1.36,5.01.27,9.96-.13,14.85-1.19,6.66-1.45,12.88-4.1,18.92-7.2,5-2.56,9.75-5.61,14.94-7.8,5.54-2.33,11.25-3.65,17.27-1.98-5.18-2.95-7.04-3.97-15.94-3.27Z"/>
    <path class="cls-2" d="m200.12,156.92c-2.46-.69-4.8-1.3-7.13-1.99-7.73-2.3-15.3-4.97-22.33-9.01-1.04-.6-2.18-.73-3.32-.78-2.52-.09-5.05-.16-7.55-.66,12.41,8.11,26.26,12.66,40.45,16.78,3.29-1.17,6.67-2.34,10.02-3.56,10.37-3.73,20.37-8.22,29.54-14.41,4.32-2.9,8.34-6.14,11.7-10.1l-2.55-1.13c-14.41,12.25-31.29,19.22-48.85,24.84Z"/>
    <path class="cls-2" d="m255.35,105.89v-.64l-.04,3.01c.03-.79.04-1.58.04-2.37Z"/>
    <path class="cls-2" d="m252.67,48.42c-.12.89-.1.8-.28,1.89-12.06-5.15-24.74-8.43-37.73-10.59,6.45,1.98,12.63,4.73,18.99,6.96,6.36,2.24,12.87,4.1,19.14,6.7.03.5.07.88.07,1.26-.07,16.49.13,32.98-.01,49.55h2.5c.01-18.84.01-37.72.01-56.58v-1.77c-14.72-6.19-30.1-8.84-45.79-9.98,14.67,3.29,29.33,6.66,43.1,12.55Z"/>
    <path class="cls-2" d="m255.31,108.26l-.16,2.95c.07-.98.13-1.96.16-2.95Z"/>
    <path class="cls-2" d="m150.67,136.28c.8-.03,1.51.03,2.07-.48-.02-.09-.03-.17-.06-.21-.21-.24-.42-.48-.62-.72-4.27-4.92-7.3-10.44-8.51-16.9-.84-4.54-1.12-9.12-1.13-13.72-.03-19.17-.03-38.33-.05-57.52,0-.63-.09-1.27.21-2.1,15.67-6.33,32.09-9.23,48.84-10.8l-1.37-.8,1.27-.8c-17.58,1.43-34.76,4.48-51.05,11.54-.05.62-.11,1.06-.11,1.49.21,21.99-.45,43.96.36,65.93.3,8.32,2.77,15.94,7.89,22.61.68.9,1.37,1.82,2.25,2.49Z"/>
    <path class="cls-2" d="m259.87,45.85v-1.99c-9.19-4.26-18.8-6.8-28.6-8.72-7.49-1.48-15.08-2.46-22.63-2.93l.53.95h0s0,0,0,0l-.27.33-.21.26c16.71,1.54,33.2,4.36,48.95,10.91v2.41c0,18.1-.04,36.17.01,54.27.01,6.8-.28,13.55-2,20.18l2.06-1.48-.42,3.13c.1-.31.19-.57.28-.83,1.7-5.54,2.27-11.28,2.28-17.04.07-19.81.03-39.63.03-59.46Z"/>
    <path class="cls-2" d="m164.78,133.08c-.55-.36-.82-.52-1.08-.7-5.97-4.07-9.85-9.54-11.23-16.71-.63-3.28-.78-6.6-.78-9.92-.01-16.3-.01-32.59,0-48.89,0-.56-.16-1.15.33-1.77,5.4-2.01,11.02-3.71,16.72-5.13,6.57-1.64,13.2-3,19.91-3.93.58-.08,1.26-.05,1.61-.76-3.82-1.15-34.41,5.83-40.64,9.22-.28.6-.15,1.24-.15,1.87,0,16.04-.02,32.08.02,48.12,0,2.94.15,5.88.36,8.81.27,3.66,1.19,7.18,2.85,10.47,2.11,4.18,4.95,7.72,8.98,10.2.98-.27,1.89-.53,3.11-.87Z"/>
    <path class="cls-4" d="m173.28,145.61c.54.45,1.1.73,1.67.99,6.57,3.02,13.4,5.29,20.39,7.11,3.07.8,5.92.73,8.96-.29,15.33-5.13,29.26-12.93,42.76-22.2-2.29.56-4.12,1.28-5.92,2.08-3.85,1.72-7.51,3.81-11.21,5.82-5.95,3.24-12.06,6.15-18.57,8.09-5.6,1.67-11.3,2.73-17.19,2.12-4.85-.5-9.62-1.4-14.1-3.36-2.29-1-4.52-.34-6.79-.36Z"/>
    <path class="cls-4" d="m189.1,97.65c-.4,7.93-.79,15.73-1.2,23.72,2.73-1.15,5.52-1.2,8.06-2.03.43-7.73,0-15.32.5-22.84,2.44-.94,4.85-.25,7.15-.72-4.98-.44-9.84-.02-14.52,1.88Z"/>
    <path class="cls-4" d="m250.48,54.46c-8.85-4.56-36.55-10.01-40.41-9,2.41.8,4.96,1.01,7.46,1.48,2.63.48,5.28.95,7.9,1.52,2.56.54,5.11,1.16,7.64,1.83,2.59.67,5.16,1.4,7.73,2.21,2.5.76,4.96,1.64,7.46,2.49v39.78h2.22c-.01-3.2-.04-6.41-.01-9.6.06-10.27.01-20.56.01-30.71Z"/>
    <path class="cls-4" d="m220.99,129.98c3.74-1.47,7.39-3.19,11.13-4.66,4.67-1.82,9.47-3.06,14.55-3.01,3.52.03,6.82.7,9.76,2.79-1.88-4.38-5.69-5.9-9.92-6.46-3.11-.41-6.22.06-9.28.98-4.62,1.39-8.87,3.58-13.16,5.71-7.87,3.91-15.88,7.32-24.94,7.28.59.21,1.18.31,1.78.37,6.96.75,13.63-.46,20.08-3Z"/>
    <path class="cls-2" d="m180.08,142.33c8.16-1.01,16.14-2.87,23.83-5.94-2.34-.11-4.68-.15-7.01-.33-5.92-.47-11.73-.03-17.47,1.59-8.03,2.26-16.19,3.69-24.56,3.6-.22,0-.48-.07-.75.33,8.67,1.76,17.31,1.83,25.96.76Z"/>
    <path class="cls-4" d="m189.21,96.97c2.45-1.01,4.78-1.33,7.17-1.82.08-5.94.15-11.78.23-17.55,1.42-.69,2.73-.41,4.01-.63-3.7-.4-7.16.38-10.62,1.76-.29,6.05-.73,12-.78,18.25Z"/>
    <path class="cls-4" d="m186.78,133.37c1.71-.26,3.49-.15,5.37-.83-2.27.01-4.3-.16-6.33-.41-2.67-.33-5.34-.29-8.01.16-4.92.84-9.7,2.22-14.56,3.3-6.61,1.47-13.23,2.88-20.07,2.57-.3-.01-.6.05-.95.09.11.12.14.2.19.21.25.05.5.1.75.13,9.09,1.09,18.09.64,27.02-1.43,5.53-1.29,10.97-2.93,16.6-3.79Z"/>
    <path class="cls-4" d="m201.16,52.83v-7.53c0-.12.1-.22.22-.22h3.49s0-.02,0-.03c-3.06-.99-10.73-.56-13.13.77h.38l.21,8.5c1.5-.41,2.93-.8,4.35-1.2v-7.68s0,0,0,0v-.08c0-.12.1-.22.22-.22h1.05c.12,0,.22.1.22.22v7.47h3Z"/>
    <path class="cls-4" d="m195.68,129.83c-.75.18-1.47.29-2.13.33.69-.03,1.4-.14,2.13-.33Z"/>
    <path class="cls-4" d="m228.01,118.91c3.63-2,7.53-3.07,11.64-3.5,1.83-.19,3.65-.14,5.49-.04-3.54-1.16-7.16-1.26-10.78-.8-4.63.58-8.84,2.37-12.85,4.7-2.76,1.61-5.32,3.51-8.01,5.24-3.61,2.32-7.31,4.44-11.59,5.27l-.61.4c4.55-.44,8.93-1.6,12.98-3.68,4.65-2.39,9.16-5.06,13.73-7.59Z"/>
    <path class="cls-4" d="m192.2,32.6v5.9q-2.58,2.18-2.41,4.45c.44.37.89.73,1.3,1.08,5.93-1.95,11.84-1.86,17.7-.04.64-.41,1.26-.73,1.62-1.21v-1.84c-.61-1.33-1.71-1.92-2.69-2.66v-5.88c.45-.5.89-.94,1.33-1.42.19-.16.34-.32.45-.45.78-.94.28-1.39.28-1.39-.69-.48-1.92-.82-3.23-1.04l-.28-.04c-2.38-.28-4.77-.47-7.17-.43-.45,0-.91,0-1.36.04-.38.02-.75.08-1.11.13-.3.05-.59.09-.89.16-.45.07-.91.18-1.38.26-.07.01-.14.02-.21.04-.23.04-.45.08-.68.11-.15.02-.29.05-.43.07-.23.03-.45.04-.69.06h-.03c-1.1.23-1.61.53-1.86.75-.16.16-.19.26-.19.29-.01.03-.01.04-.01.04v.07c-.13.32.01.64.2.98.41.76,1.17,1.2,1.74,1.99Zm13.55,2.05c0-.35.01-.7.04-1.08l.04-2.03h1.38l-.2,6.67-.09-.03v.03s-.01-.03-.03-.04l-1.24-.47.1-3.04Zm-.47-3.75l-.22,6.6s-1.54-.37-4.27-.37h0s.21.38.21.38l-1.42-.06v-.31s0,0,0,0h0c-1.3.05-2.81.18-4.51.46l-.06-6.44s4.18-1.78,10.27-.28Zm-11.73.63c.1-.01.22-.01.35,0h.28l.19,6.16-1.35.51-.19-6s-.01-.09-.01-.13t.01-.01l-.03-.53h.75Zm2.78,7.11c3.51-.44,7.01-.35,10.43.51.8.22,1.61.47,2.27,1.01.54.41,1.14.83.99,1.78-6.66-2.85-13.21-2.87-19.96-.1.18-1.21,1.08-1.77,2-2.22,1.35-.63,2.81-.82,4.26-.98Z"/>
    <polygon class="cls-4" points="199.58 37.15 199.58 37.15 199.58 37.16 199.58 37.16 199.58 37.16 199.58 37.15"/>
    <polygon class="cls-4" points="200.79 37.14 200.79 37.14 200.78 37.14 200.79 37.14"/>
    <polygon class="cls-4" points="191.73 45.82 191.73 45.82 191.35 54.58 192.32 54.32 192.32 54.32 192.11 45.82 191.73 45.82"/>
    <path class="cls-4" d="m200.73,27.12c.32,0,.65.02.98.03.33.03.66.05,1.01.08.26.03.53.05.8.08.09.02.17.02.24.03,1.42.17,2.93.42,4.48.81-1.84-2.22-4.52-3.38-6.71-5.07v.17l-3.48-.11c-2.26,1.52-4.81,2.85-6.65,5.08,0,0,3.42-1.16,8.66-1.12.23,0,.45,0,.68.02Z"/>
    <polygon class="cls-4" points="201.53 23.08 201.53 21.64 201.49 21.6 199.83 19.94 199.59 20.18 198.05 21.7 198.05 23.14 201.53 23.24 201.53 23.08"/>
    <polygon class="cls-2" points="191.43 33.83 191.32 32.23 190.06 33.03 191.43 33.83"/>
    <polygon class="cls-2" points="208.64 32.22 208.68 33.75 208.89 33.5 209.16 33.16 208.64 32.22"/>
    <polygon class="cls-2" points="209.16 33.16 208.89 33.5 209.16 33.17 209.16 33.16"/>
    <path class="cls-4" d="m200.45,128.17l.23-.14v-5.59l-2.43-.11-.24-.02-1.34-.06v7.19l.74-.14c1.12-.24,2.11-.68,3.05-1.15Z"/>
    <polygon class="cls-4" points="204.16 122.32 201.27 122.32 201.3 127.92 203.98 126.96 204.16 122.32"/>
    <path class="cls-4" d="m198.62,71.45h2.47v-6.96h-2.47v6.96Z"/>
    <path class="cls-4" d="m199.86,80.06h-1.38v7.09h2.61v-7.09h-1.23Z"/>
    <polygon class="cls-4" points="198.48 110.05 201.27 110.05 201.27 106.38 201.27 106.32 201.27 102.74 198.48 102.74 198.48 110.05"/>
    <path class="cls-4" d="m180.13,124.05c.99.74,1.92,1.33,2.73,1.78.09.05.16.09.25.13-.08-.05-.16-.09-.25-.13-.89-.63-1.62-1.5-2.73-1.78Z"/>
    <path class="cls-4" d="m179.68,123.59s0,0,0,0h-.01s-.01-.01-.03-.01h0s-.03-.03-.06-.03c.03.03.07.06.1.08,0-.01,0-.02,0-.04,0,0,.01,0,.02,0Z"/>
    <path class="cls-4" d="m180.13,124.09s.03.05.04.08c-.01-.03-.03-.06-.04-.08-.01-.03-.01-.04-.01-.04,0,0,0,0,0,0,0,0,0,.01.01.04Z"/>
    <polygon class="cls-4" points="179.67 123.64 179.67 123.64 179.67 123.63 179.67 123.64"/>
    <path class="cls-4" d="m179.7,123.59h0s0,.04-.01.04h0c.13.12.25.2.38.32-.03-.22-.18-.31-.37-.37Z"/>
    <path class="cls-4" d="m177.44,126.18s0,.01,0,.02c.51.41,1.27.79,2.12,1.16.49.2,1.02.39,1.54.57-.52-.18-1.04-.37-1.54-.58-.72-.38-1.4-.79-2.12-1.17Z"/>
    <path class="cls-4" d="m181.75,128.15c-.18-.06-.36-.12-.54-.18.18.06.36.12.54.18Z"/>
    <path class="cls-4" d="m182.53,128.4c-.15-.05-.29-.09-.45-.14.15.05.3.09.45.14Z"/>
    <path class="cls-4" d="m182.9,127.82s.06.06.09.08c-.03-.03-.06-.06-.09-.08Z"/>
    <path class="cls-4" d="m185.75,127.16h0s-.12-.04-.33-.12c.21.08.33.12.33.12Z"/>
    <path class="cls-4" d="m183.63,128.36c.09.06.17.13.27.19-.1-.06-.18-.13-.27-.19Z"/>
    <path class="cls-4" d="m180.41,129.24h0s.01.04.01.07h-.15c-1.43,0-2.87-.12-4.27-.37-.06-.01-.1-.03-.15-.04,0,0,0,0,0,0h0c.05.02.1.03.15.05,1.4.25,2.84.37,4.27.37h.41c-.1-.01-.19-.04-.27-.08-1.66-.52-2.68-2.44-2.92-2.94-.01-.02-.01-.02-.02-.04,0,.02,0,.01.01.04.25.5,1.27,2.41,2.93,2.94Z"/>
    <path class="cls-4" d="m182.86,128.5c1.09.33,1.94.54,2.12.59-.13-.05-.25-.13-.38-.19.1.05.19.11.3.15-.3-.06-1.08-.27-2.04-.55Z"/>
    <path class="cls-4" d="m179.68,123.59s0,0,0,0c0,0-.01,0-.02,0,0,.01,0,.03,0,.04,0,0,0,0,0,0h0s0,.01,0,.01h0s.02-.02.01-.04h0Z"/>
    <path class="cls-4" d="m178.96,122.13l-4.58,2.32,1.48,4.46s0,0,0,0c.04.01.09.03.15.04,1.4.25,2.84.37,4.27.37h.15s0-.04-.01-.06h0c-1.65-.54-2.68-2.46-2.93-2.96,0-.02,0-.02-.01-.04-.02-.03-.04-.07-.04-.07,0,0,0,0,.01,0,0,0,0-.02,0-.02.72.38,1.4.79,2.12,1.17.49.2,1.02.4,1.54.58.04.01.07.03.11.04.18.06.36.12.54.18.11.04.22.07.33.11.15.05.3.09.45.14.11.03.23.07.33.1.96.29,1.74.49,2.04.55-.11-.04-.2-.1-.3-.15-.24-.11-.49-.22-.71-.36-.1-.06-.18-.13-.27-.19-.22-.15-.44-.29-.64-.45-.03-.03-.06-.06-.09-.08-1.6-1.35-2.47-3.09-2.7-3.62,0-.01,0-.02-.02-.03-.02-.03-.03-.06-.04-.08-.01-.03-.01-.04-.01-.04,0,0,0,0,0,0h0c1.11.28,1.84,1.15,2.73,1.78.09.05.16.09.25.13,1.06.58,1.89.92,2.32,1.08.21.08.33.12.33.12l-1.08-2.67-5.71-2.36Zm.72,1.51h0s0,0,0,0c0,0,0,0,0,0h0s0,0,0,0c0,0,0,0,0,0-.03-.03-.07-.06-.1-.08.03,0,.04.01.06.01h0l.03.03h.01s0,0,0,0c0,0,0,0,.01,0,0,0,0,0,0,0h0c.19.06.34.15.37.37-.13-.12-.25-.2-.38-.32Z"/>
    <path class="cls-4" d="m179.66,123.62s0,0,0,0c0,0,0,0,0,0h0s0,0,0-.01Z"/>
    <polygon class="cls-4" points="179.68 123.64 179.68 123.64 179.67 123.64 179.68 123.64"/>
    <path class="cls-4" d="m179.69,123.59s0,0,0,0c0,0,0,0-.01,0,0,0,0,0,0,0h0Z"/>
    <path class="cls-4" d="m174.37,106.55l-.18-.12-.03.03s0,0,0,0c.07.03.14.06.2.09Z"/>
    <path class="cls-4" d="m185.94,114.38c.13.09.22.2.38.35,0,.39,0,.79-.01,1.17h.02s.06-1.24.06-1.24l-.53-.36.09.07Z"/>
    <path class="cls-4" d="m186.85,104.42s.01,0,.02-.01h0s-.02.01-.02.01Z"/>
    <path class="cls-4" d="m186.56,110.47s0,0,0,0h.02s.29-6.06.29-6.06l-.13,2.66c-.06,1.11-.12,2.22-.18,3.39Z"/>
    <path class="cls-4" d="m184.08,106.28c.45-.16.81-.46,1.18-.79l-1.18.79Z"/>
    <polygon class="cls-4" points="171.22 109.94 171.22 110.34 175.77 112.01 172.37 109.09 171.22 109.94"/>
    <path class="cls-4" d="m185.94,114.38l-.09-.07-11.49-7.76c-.06-.03-.13-.06-.2-.09,0,0,0,0,0,0l-.35.42,4.5,6.07,8,2.95c.01-.38.01-.77.01-1.17-.16-.15-.25-.26-.38-.35Z"/>
    <path class="cls-4" d="m185.26,105.48c-.37.33-.74.63-1.18.79h-.02s-8.95-2.14-8.95-2.14l-3.89-.27v3.96l2.76-2.61,12.58,5.25s0,0,0,0c.06-1.17.12-2.28.18-3.39l.13-2.66h0s-.01,0-.02,0l-1.58,1.06Z"/>
    <polygon class="cls-1" points="186.61 114.81 186.86 110.61 186.58 110.49 186.38 114.66 186.61 114.81"/>
    <polygon class="cls-1" points="180.88 116.42 178.31 112.95 175.77 112.01 180.88 116.42"/>
    <polygon class="cls-1" points="171.22 109.94 171.22 107.83 160.86 117.62 171.22 109.94"/>
    <path class="cls-1" d="m186.54,110.62c-4.01-1.23-7.58-3.2-11.24-4.83l-.69-.29c-.56.1-.89.35-.99.82.19.03.36.07.54.15l.03-.03.18.12s0,0,0,0c.09.04.16.1.23.15,3.75,2.55,7.51,5.08,11.25,7.61h0s.53.36.53.36l.2-4.17h-.02s-.01.09-.01.13Z"/>
    <path class="cls-1" d="m185.86,114.3c-3.75-2.53-7.51-5.06-11.25-7.61-.07-.04-.15-.1-.23-.15,0,0,0,0,0,0l11.49,7.76h0Z"/>
    <path class="cls-1" d="m172.37,109.09l3.4,2.93,2.54.94-4.5-6.07.35-.42c-.18-.07-.35-.12-.54-.15.1-.47.44-.72.99-.82l.69.29c3.66,1.62,7.23,3.6,11.24,4.83,0-.04,0-.09.01-.14l-12.58-5.25-2.76,2.61v2.11l1.15-.86Z"/>
    <path class="cls-4" d="m195.94,121.04v.23c7.56-.4,15.34,1,15.34,1v-.51c-2.17-.41-4.17-.69-6.02-.88,2.29.29,4.27.73,5.57,1.29-1.74-.37-8.23-1.59-14.89-1.13Z"/>
    <path class="cls-4" d="m188.32,122.07c-.18.08-.33.14-.43.18-.06.03-.08.04-.11.07,1.07-.43,2.17-.74,3.18-.99-1.25.26-2.11.55-2.65.74Z"/>
    <path class="cls-4" d="m210.83,122.17c-1.3-.56-3.28-1-5.57-1.29-.21-.03-.43-.05-.65-.07-2.8-.26-5.23-.32-7.3-.25-.47.03-.93.05-1.37.08v.4c6.66-.47,13.15.75,14.89,1.13Z"/>
    <path class="cls-4" d="m194.52,120.75h-.03c-.14.01-.27.03-.43.05.16-.01.34-.04.52-.05h-.07Z"/>
    <path class="cls-4" d="m192.29,130.16h.1c.37.01.75.01,1.17,0,.66-.04,1.37-.15,2.13-.33l.26-8.01v-.54c-2.93.16-5.82.58-8.21,1.46v-.4l-.16,6.34s.01,0,.03.01c1.51.8,3.06,1.33,4.69,1.47Z"/>
    <path class="cls-4" d="m195.94,121.27v-.62s-.15,0-.43.03h-.1c-.29.03-.56.05-.82.08-.18.01-.36.04-.52.05-.15.01-.29.04-.43.05-.14.01-.27.03-.43.05-.11.01-.19.03-.29.04-.05.01-.11.03-.16.03-.16.03-.32.05-.47.08-.03,0-.05.01-.08.01l-.25.04c-.15.04-.32.07-.49.1-.16.04-.34.08-.51.11-1.02.25-2.11.56-3.18.99-.01,0-.04,0-.05.01v.4c2.39-.88,5.28-1.31,8.21-1.46Z"/>
    <path class="cls-4" d="m200.78,37.21v-.07h0,0c-.99-.02-1.17.01-1.2.02v.05h1.2Z"/>
    <polygon class="cls-4" points="199.58 37.22 199.58 37.16 199.57 37.16 199.57 37.47 200.99 37.52 200.79 37.14 200.79 37.22 199.58 37.22"/>
    <polygon class="cls-4" points="200.78 37.14 200.78 37.21 199.58 37.21 199.58 37.16 199.58 37.16 199.58 37.22 200.79 37.22 200.79 37.14 200.78 37.14 200.78 37.14"/>
    <path class="cls-4" d="m220.63,116.2l.07-.04s-.04.01-.07.03h0Z"/>
    <path class="cls-4" d="m213.77,103.23h-.01c0,.13,0,.25.01.38v-.38Z"/>
    <path class="cls-4" d="m231.65,112.34v.5l1.35-.45c-.32.03-.72,0-1.35-.04Z"/>
    <rect class="cls-4" x="243.02" y="95.02" width=".01" height="17.7"/>
    <path class="cls-4" d="m250.49,116.12v-10.05c-.04,3.31-.13,6.6-.35,9.92l.35.13Z"/>
    <path class="cls-4" d="m250.49,94.77h-.01c.01.75.01,1.49.01,2.24v-2.24Z"/>
    <path class="cls-4" d="m248.25,115.28l.12.04s-.07-.06-.12-.09v.04Z"/>
    <path class="cls-4" d="m248.25,115.24s.07.06.12.09l1.77.66c.22-3.32.31-6.61.35-9.92v-9.06c0-.75,0-1.49-.01-2.24h-2.22v20.47Z"/>
    <path class="cls-2" d="m249.72,131.45c.47-.41.94-.82,1.4-1.24.22-.04.72-.16,1.23-.23.5-.09.99-.15,1.54-.22.01.15,0,.28-.03.4.19-.32.34-.61.37-.83l-2.94.16s.09.48-1.57,1.98Z"/>
    <path class="cls-2" d="m252.81,131.64c-.34.44-.69.86-1.04,1.29.23-.28.64-.76,1.04-1.29Z"/>
    <path class="cls-2" d="m252.35,129.97c-.51.07-1.01.19-1.23.23-.47.42-.94.83-1.4,1.24-.22.19-.47.4-.75.63l2.55,1.13h.01s.06-.07.09-.1c.04-.04.09-.1.15-.18.35-.42.7-.85,1.04-1.29.13-.18.26-.35.41-.53.23-.34.45-.66.64-.97.03-.12.04-.25.03-.4-.54.07-1.04.13-1.54.22Z"/>
    <polygon class="cls-2" points="255.37 104.19 255.35 104.19 255.35 105.25 255.37 104.19"/>
    <path class="cls-2" d="m252.67,118.05v.78l1.97,1.73.5-9.35c-.19,2.56-.55,5.1-1.13,7.62-.86-.29-.88-.29-1.35-.78Z"/>
    <path class="cls-2" d="m252.67,116.53v1.52c.47.48.48.48,1.35.78.58-2.52.94-5.06,1.13-7.62l.16-2.95.04-3.01v-1.05h-2.5c-.03,4.11-.09,8.22-.18,12.33Z"/>
    <polygon class="cls-2" points="255.64 121.53 257.28 123.18 257.71 120.05 255.64 121.53"/>
    <path class="cls-1" d="m189.46,56.93c.77-.46,1.5-.84,2.23-1.14.15-.06.3-.11.45-.17l-.34-.35-.28.11c-.71.29-1.43.66-2.24,1.15l-.02.52c.06-.04.13-.08.2-.12Z"/>
    <path class="cls-1" d="m189.2,58.83s.03.03.05.05c-.02-.01-.03-.03-.05-.05h0Z"/>
    <path class="cls-1" d="m189.24,58.88c0,.17-.02.34-.02.52.56.38,1.2.65,1.44.73l.21.19c0-.19.02-.38.03-.57,0,0-.99-.34-1.65-.86Z"/>
    <path class="cls-1" d="m188.59,57.08c-.27.31-.39.64-.36.99.03.41.28.8.73,1.16.08.06.17.12.25.17,0-.17.02-.34.02-.52-.02-.01-.03-.03-.05-.05h0c-.48-.4-.76-.91-.27-1.47,0,0,.21-.18.54-.43-.06.04-.13.08-.2.12l.02-.52s-.06.03-.09.05c-.33.26-.56.45-.6.49Z"/>
    <path class="cls-4" d="m220.63,116.19s.04-.03.07-.03h.04s2.41-1.3,2.41-1.3v-16.8h-2.53v18.13Z"/>
    <path class="cls-4" d="m212.06,107.84c.12,4.42.25,8.81.42,13.21l1.29-1.02v-16.42c-.01-.13-.01-.25-.01-.38h-1.7v4.61Z"/>
    <path class="cls-4" d="m231.65,112.34c.63.04,1.02.07,1.35.04h.03l1.64-.54v-17.07h-3.01v17.57Z"/>
    <polygon class="cls-4" points="243.03 112.72 243.05 112.74 246.05 113.37 246.05 95.02 243.03 95.02 243.03 112.72"/>
    <path class="cls-1" d="m189.26,58.41c0,.16-.01.31-.02.47.66.53,1.65.86,1.65.86-.35-.7-.73-1.27-1.62-1.33Z"/>
    <path class="cls-1" d="m190.89,59.74l1.36,1.24,1.88-2.67-2.43-2.53c-.74.3-1.47.68-2.23,1.14-.08.06-.13.1-.2.16l-.07,1.74s.03.03.05.05c0-.16.01-.31.02-.47.89.06,1.27.63,1.62,1.33Z"/>
    <path class="cls-1" d="m189.46,56.93c-.32.25-.54.43-.54.43-.49.56-.21,1.06.27,1.47l.07-1.74c.07-.05.12-.09.2-.16Z"/>
    <path class="cls-4" d="m190.07,78.05l.85-18.7s-2.87-1.23-1.41-2.12c0,0,2.91-2.46,11.84-2.22,0,0,7.29.31,9.36,2.88,0,0-1.76-1.6-7.88-1.78,0,0-3.91-.06-6.58.27v1s9.02-1.27,14.16,1.89c0,0-5.95-2.31-13.95-.65l.09,17.54s-5.15,1.09-6.48,1.88Z"/>
    <g>
      <path class="cls-3" d="m154.22,109.62c6.93-5.47,13.78-10.89,20.69-16.33,3.92,2.44,7.53,5.28,11.5,7.49,1.05-1.17,1.1-1.96,1.45-13.99.16-4.78.53-9.55.76-14.35.06-1.19.11-2.38.16-3.57v.02s.08-1.69.08-1.69c.12-2.6.24-5.21.36-7.81-.08-.06-.17-.11-.25-.17-.45-.36-.7-.75-.73-1.16-.03-.35.09-.68.36-.99.04-.04.27-.23.6-.49.03-.02.06-.03.09-.05l.12-2.96c.23-1.86.17-3.69.22-5.57-12.35,2-24.3,4.54-35.7,8.91-.4,4.46-.18,50.49.29,52.71Z"/>
      <path class="cls-5" d="m210.42,47.94v7.29s1.24,1.1.98,3.03c0,0-.24,1.54-1.19,2.08l.31,4.21s0-.01.01-.02c.18,5.81.37,11.62.56,17.42,0,.37-.15.78.26,1.04,3.64-2.14,17.6-14.85,19.3-17.6-1.16-.95-2.68-1.42-3.98-2.59,4.23-1.33,8.25-2.6,12.47-3.92-.56,4.64-1.1,9-1.68,13.78-1.16-1.81-1.54-3.48-2.84-4.95-7.02,7.86-14.79,14.85-23.04,21.23.15,6.35.31,12.63.48,18.89.12,4.42.25,8.81.42,13.21l1.29-1.02v-16.42c-.01-.13-.01-.25-.01-.38-.03-1.71-.07-3.44-.1-5.16h6.98v18.13s.04-.03.07-.03h.04s2.41-1.3,2.41-1.3v-25.4h8.49v22.88c.63.04,1.02.07,1.35.04h.03l1.64-.54v-6.45c0-2.17.01-4.33.01-6.51,0-1.36,0-2.74-.01-4.11v-2.22c0-2.17-.01-4.35.01-6.51.03-2.15-.13-4.3.1-6.41h8.25v33.09h.01s3,.64,3,.64v-56.61c-11.49-4.46-23.42-6.89-35.63-8.82Z"/>
    </g>
  </g>
  <g>
    <polygon points="210.84 197.05 207.2 205.06 206.69 205.06 203.04 197.05 203.84 197.05 206.9 204.15 206.94 204.15 209.98 197.05 210.84 197.05"/>
    <polygon points="196.18 196.74 196.1 196.74 193.06 203.84 193.02 203.84 189.96 196.74 189.94 196.74 189.16 196.74 189.16 205.06 189.94 205.06 189.94 198.44 192.81 204.75 193.32 204.75 196.18 198.45 196.18 205.06 196.96 205.06 196.96 196.74 196.18 196.74"/>
  </g>
  <g>
    <path d="m92.48,176.81v10.2c0,.19,0,.22-.04.38.16-.04.19-.04.38-.04h4.8l-.17.9h-6.04v-11.45h1.07Z"/>
    <path d="m104.5,188.35h-1.07v-11.53h1.07v11.53Z"/>
    <path d="m118.7,188.16c-.73.24-1.33.35-2.11.35-3.31,0-5.7-2.51-5.7-6.03,0-3.33,2.48-5.82,5.77-5.82s5.7,2.44,5.7,5.94c0,2.23-.99,4.05-2.77,5.09,1.26,1.23,2.94,1.98,5.4,2.42l-1.09.81c-1.96-.36-3.57-1.19-5.04-2.63l-.16-.14Zm-6.65-5.8c0,3,1.99,5.16,4.75,5.16s4.42-1.96,4.42-4.78-1.97-5.13-4.62-5.13-4.54,1.94-4.54,4.74Z"/>
    <path d="m129.83,176.81v6.7c0,1.16.05,1.7.21,2.13.45,1.21,1.63,1.9,3.26,1.9,1.23,0,2.2-.38,2.77-1.11.45-.55.62-1.32.62-2.7v-6.93h1.07v6.89c0,1.94-.33,2.93-1.26,3.72-.8.71-1.96,1.07-3.33,1.07-2.11,0-3.69-.94-4.17-2.46-.19-.61-.24-1.18-.24-2.36v-6.88h1.07Z"/>
    <path d="m145.82,188.35h-1.07v-11.53h1.07v11.53Z"/>
    <path d="m153.23,176.93l.3-.03c.61-.05,1.23-.07,1.82-.07,2.27,0,3.95.48,5.07,1.47,1.16,1.02,1.85,2.65,1.85,4.38,0,1.91-.76,3.52-2.18,4.54-1,.73-2.67,1.11-4.88,1.11-.83,0-1.4-.03-2.34-.14v-11.24l.36-.02Zm1.07,10.41c.45.05.64.07,1.37.07,1.85,0,3.34-.45,4.19-1.3.81-.81,1.26-2.01,1.26-3.36,0-2.04-1.13-3.83-2.87-4.49-.92-.35-2.01-.52-3.26-.52-.47,0-.62,0-1.09.05.03.14.03.16.03.35v8.87c0,.16,0,.19-.03.28h.05l.35.05Z"/>
    <path d="m169.78,188.35h-1.07v-11.53h1.07v11.53Z"/>
    <path d="m184.75,176.9v.9h-3.69c-.19,0-.22,0-.38-.04.03.16.03.19.03.38v10.2h-1.07v-10.2c0-.19,0-.23.03-.38-.16.04-.19.04-.38.04h-3.72v-.9h9.18Z"/>
    <path d="m213.05,176.9v.9h-3.69c-.19,0-.22,0-.38-.04.03.16.03.19.03.38v10.2h-1.07v-10.2c0-.19,0-.23.03-.38-.16.04-.19.04-.38.04h-3.72v-.9h9.18Z"/>
    <path d="m224.03,178.6c-1.07-.69-1.93-.99-2.98-.99-1.49,0-2.56.81-2.56,1.97,0,.92.55,1.4,2.23,2.04l1.36.5c2.21.83,2.97,1.63,2.97,3.07,0,1.97-1.81,3.31-4.48,3.31-1.51,0-2.62-.35-3.98-1.2l.31-1.11c1.27.97,2.4,1.4,3.78,1.4,1.84,0,2.99-.88,2.99-2.29,0-.97-.66-1.59-2.32-2.2l-1.31-.47c-2.03-.73-2.86-1.59-2.86-2.94,0-1.72,1.73-3.05,3.96-3.05,1.31,0,2.49.35,3.48,1l-.59.94Z"/>
    <path d="m237.9,181.85c.19,0,.23,0,.38.03-.03-.16-.03-.19-.03-.38v-4.69h1.07v11.53h-1.07v-5.25c0-.19,0-.23.03-.38-.16.04-.19.04-.38.04h-5.92c-.19,0-.22,0-.38-.04.03.16.03.19.03.38v5.25h-1.07v-11.53h1.07v4.69c0,.19,0,.23-.03.38.16-.03.19-.03.38-.03h5.92Z"/>
    <path d="m252.82,177.8h-5.03c-.19,0-.22,0-.38-.04.04.16.04.19.04.38v3.33c0,.19,0,.22-.04.38.16-.04.19-.04.38-.04h4.56v.9h-4.56c-.19,0-.22,0-.38-.04.04.16.04.19.04.38v3.95c0,.19,0,.22-.04.38.16-.04.19-.04.38-.04h5.76v.9h-7.18v-11.36h6.45v.9Z"/>
    <path d="m293.1,177.8h-5.03c-.19,0-.22,0-.38-.04.04.16.04.19.04.38v3.33c0,.19,0,.22-.04.38.16-.04.19-.04.38-.04h4.56v.9h-4.56c-.19,0-.22,0-.38-.04.04.16.04.19.04.38v3.95c0,.19,0,.22-.04.38.16-.04.19-.04.38-.04h5.76v.9h-7.18v-11.36h6.45v.9Z"/>
    <path d="m259.88,176.81v10.2c0,.19,0,.22-.04.38.16-.04.19-.04.38-.04h4.79v.9h-6.21v-11.45h1.07Z"/>
    <path d="m271.2,176.93l.3-.03c.61-.05,1.23-.07,1.82-.07,2.27,0,3.95.48,5.07,1.47,1.16,1.02,1.85,2.65,1.85,4.38,0,1.91-.76,3.52-2.18,4.54-1,.73-2.67,1.11-4.88,1.11-.83,0-1.4-.03-2.34-.14v-11.24l.36-.02Zm1.07,10.41c.45.05.64.07,1.37.07,1.85,0,3.34-.45,4.19-1.3s1.26-2.01,1.26-3.36c0-2.04-1.13-3.83-2.87-4.49-.92-.35-2.01-.52-3.26-.52-.47,0-.62,0-1.09.05.03.14.03.16.03.35v8.87c0,.16,0,.19-.03.28h.05l.35.05Z"/>
    <path d="m292.5,177.8h-4.43c-.19,0-.22,0-.38-.04.04.16.04.19.04.38v3.33c0,.19,0,.22-.04.38.16-.04.19-.04.38-.04h3.97v.9h-3.97c-.19,0-.22,0-.38-.04.04.16.04.19.04.38v3.95c0,.19,0,.22-.04.38.16-.04.19-.04.38-.04h5.16l-.16.9h-6.43v-11.36h5.85v.9Z"/>
    <path d="m299.66,176.66l5.98,7.26c.4.5.74.94,1.04,1.33l.57.8c.09.1.24.33.49.64l.07-.02c-.09-.61-.1-.85-.12-1.23,0-.16-.02-.42-.02-.71-.02-.49-.02-.62-.02-.78v-7.14h.95v11.46l-.5.21-6.06-7.31c-.05-.05-.19-.24-.38-.52-.09-.12-.31-.42-.66-.87-.24-.31-.59-.78-1.04-1.4l-.07.02c.1,1.4.16,2.22.16,2.74v7.2h-.95v-11.5l.57-.19Z"/>
    <path d="m191.56,184.43l-1.81,4.07h-1.17l5.35-11.74h.75l5.33,11.74h-1.25l-1.83-4.07h-5.37Zm3.89-.83c.54,0,.67,0,1.15.03-.21-.4-.23-.45-.46-.95l-1.29-2.94c-.25-.55-.35-.87-.56-1.65h-.06c-.25.81-.38,1.2-.58,1.65l-1.31,2.94c-.19.43-.25.54-.46.95.5-.03.61-.03,1.15-.03h2.41Zm1.92-10.2c0,.52-.43.91-1.01.91s-.99-.39-.99-.91.43-.89.99-.89,1.01.39,1.01.89Zm-4.03,0c0,.52-.43.91-1.01.91s-.99-.39-.99-.91.43-.89.99-.89,1.01.39,1.01.89Z"/>
  </g>
</svg>